<svg width="20" height="20" viewBox="0 0 20 20" fill="none" xmlns="http://www.w3.org/2000/svg">
<path d="M15.3333 4.66667C17.1733 6.48 17.8667 9.01333 17.4311 11.3778C17.7956 12.0178 18 12.7644 18 13.5556C18 14.7343 17.5317 15.8648 16.6983 16.6983C15.8648 17.5317 14.7343 18 13.5556 18C12.7644 18 12.0178 17.7956 11.3778 17.4311C9.01333 17.8667 6.48 17.1733 4.66667 15.3333C2.82667 13.52 2.13333 10.9867 2.56889 8.62222C2.20444 7.98222 2 7.23556 2 6.44444C2 5.2657 2.46825 4.13524 3.30175 3.30175C4.13524 2.46825 5.2657 2 6.44444 2C7.23556 2 7.98222 2.20444 8.62222 2.56889C10.9867 2.13333 13.52 2.82667 15.3333 4.66667ZM10.0356 14.5867C12.5867 14.5867 13.8578 13.36 13.8578 11.7067C13.8578 10.6489 13.36 9.52 11.4311 9.08444L9.66222 8.69333C8.98667 8.54222 8.22222 8.33778 8.22222 7.70667C8.22222 7.06667 8.75556 6.62222 9.73333 6.62222C11.7156 6.62222 11.5289 7.98222 12.5156 7.98222C13.0311 7.98222 13.4756 7.68 13.4756 7.15556C13.4756 5.93778 11.5289 5.02222 9.87556 5.02222C8.08889 5.02222 6.17778 5.78667 6.17778 7.81333C6.17778 8.79111 6.52444 9.83111 8.44444 10.3111L10.8356 10.9156C11.5556 11.0933 11.7333 11.4933 11.7333 11.8667C11.7333 12.4711 11.1289 13.0667 10.0356 13.0667C7.89333 13.0667 8.18667 11.4222 7.04 11.4222C6.52444 11.4222 6.15111 11.7778 6.15111 12.2844C6.15111 13.2711 7.33333 14.5867 10.0356 14.5867Z" fill="#7A7A7A"/>
</svg>
