<svg width="20" height="20" viewBox="0 0 20 20" fill="none" xmlns="http://www.w3.org/2000/svg">
<path d="M10 16.48C7.75 16.48 5.761 15.328 4.6 13.6C4.627 11.8 8.2 10.81 10 10.81C11.8 10.81 15.373 11.8 15.4 13.6C14.239 15.328 12.25 16.48 10 16.48ZM10 3.7C10.7161 3.7 11.4028 3.98446 11.9092 4.49081C12.4155 4.99716 12.7 5.68392 12.7 6.4C12.7 7.11608 12.4155 7.80284 11.9092 8.30919C11.4028 8.81554 10.7161 9.1 10 9.1C9.28392 9.1 8.59716 8.81554 8.09081 8.30919C7.58446 7.80284 7.3 7.11608 7.3 6.4C7.3 5.68392 7.58446 4.99716 8.09081 4.49081C8.59716 3.98446 9.28392 3.7 10 3.7V3.7ZM10 1C8.8181 1 7.64778 1.23279 6.55585 1.68508C5.46392 2.13738 4.47177 2.80031 3.63604 3.63604C1.94821 5.32387 1 7.61305 1 10C1 12.3869 1.94821 14.6761 3.63604 16.364C4.47177 17.1997 5.46392 17.8626 6.55585 18.3149C7.64778 18.7672 8.8181 19 10 19C12.3869 19 14.6761 18.0518 16.364 16.364C18.0518 14.6761 19 12.3869 19 10C19 5.023 14.95 1 10 1Z" fill="#7A7A7A"/>
</svg>
