<svg width="26" height="26" viewBox="0 0 26 26" fill="none" xmlns="http://www.w3.org/2000/svg">
<path d="M13 22C9.875 22 7.1125 20.4 5.5 18C5.5375 15.5 10.5 14.125 13 14.125C15.5 14.125 20.4625 15.5 20.5 18C18.8875 20.4 16.125 22 13 22ZM13 4.25C13.9946 4.25 14.9484 4.64509 15.6517 5.34835C16.3549 6.05161 16.75 7.00544 16.75 8C16.75 8.99456 16.3549 9.94839 15.6517 10.6517C14.9484 11.3549 13.9946 11.75 13 11.75C12.0054 11.75 11.0516 11.3549 10.3483 10.6517C9.64509 9.94839 9.25 8.99456 9.25 8C9.25 7.00544 9.64509 6.05161 10.3483 5.34835C11.0516 4.64509 12.0054 4.25 13 4.25ZM13 0.5C11.3585 0.5 9.73303 0.823322 8.21646 1.45151C6.69989 2.07969 5.3219 3.00043 4.16117 4.16117C1.81696 6.50537 0.5 9.68479 0.5 13C0.5 16.3152 1.81696 19.4946 4.16117 21.8388C5.3219 22.9996 6.69989 23.9203 8.21646 24.5485C9.73303 25.1767 11.3585 25.5 13 25.5C16.3152 25.5 19.4946 24.183 21.8388 21.8388C24.183 19.4946 25.5 16.3152 25.5 13C25.5 6.0875 19.875 0.5 13 0.5Z" fill="white"/>
</svg>
