<svg width="130" height="30" viewBox="0 0 130 30" fill="none" xmlns="http://www.w3.org/2000/svg">
<path d="M13.45 4.64999V0.399994H0.0500031V29.6H13.45V25.35C10.705 25.35 8.0724 24.2595 6.13144 22.3185C4.19044 20.3775 3.1 17.745 3.1 15C3.1 12.255 4.19044 9.6224 6.13144 7.68144C8.0724 5.74044 10.705 4.64999 13.45 4.64999Z" fill="white"/>
<path d="M13.45 4.64999V25.35C16.195 25.35 18.8276 24.2595 20.7686 22.3185C22.7096 20.3775 23.8 17.745 23.8 15C23.8 12.255 22.7096 9.6224 20.7686 7.68144C18.8276 5.74044 16.195 4.64999 13.45 4.64999Z" fill="white"/>
<path d="M31.32 7.25H34.32V21.7H31.32V7.25Z" fill="white"/>
<path d="M36 16.75C36 15.7104 36.3087 14.6942 36.8869 13.8302C37.4651 12.9662 38.2868 12.2933 39.2479 11.8968C40.209 11.5004 41.2661 11.3982 42.2853 11.6032C43.3045 11.8082 44.2399 12.3112 44.9729 13.0484C45.7059 13.7857 46.2036 14.7239 46.4028 15.7443C46.6019 16.7647 46.4937 17.8212 46.0917 18.78C45.6897 19.7387 45.0122 20.5566 44.1449 21.1298C43.2776 21.7031 42.2596 22.0059 41.22 22C40.5305 22.0054 39.8468 21.8731 39.2091 21.6107C38.5714 21.3484 37.9924 20.9614 37.5062 20.4725C37.02 19.9835 36.6364 19.4023 36.3777 18.7631C36.1191 18.1239 35.9907 17.4395 36 16.75ZM43.52 16.75C43.5082 16.3018 43.3645 15.867 43.1069 15.5001C42.8493 15.1331 42.4893 14.8502 42.0717 14.6868C41.6542 14.5234 41.1978 14.4867 40.7596 14.5814C40.3213 14.676 39.9207 14.8977 39.6078 15.2189C39.2949 15.54 39.0836 15.9462 39.0004 16.3868C38.9172 16.8274 38.9657 17.2827 39.1399 17.6958C39.3141 18.1089 39.6062 18.4616 39.9798 18.7095C40.3533 18.9575 40.7916 19.0898 41.24 19.09C41.5453 19.096 41.8485 19.0389 42.1307 18.9223C42.4129 18.8058 42.668 18.6323 42.8801 18.4127C43.0922 18.1931 43.2567 17.932 43.3634 17.646C43.4701 17.3599 43.5166 17.0549 43.5 16.75H43.52Z" fill="white"/>
<path d="M58.31 11.8V21.21C58.31 24.53 55.71 25.94 53.08 25.94C52.1523 26.0161 51.2218 25.8318 50.3933 25.4078C49.5647 24.9838 48.8709 24.3369 48.39 23.54L50.92 22.08C51.125 22.4934 51.4511 22.8344 51.8549 23.0577C52.2587 23.281 52.7209 23.376 53.18 23.33C53.4725 23.366 53.7693 23.337 54.0492 23.245C54.3292 23.1529 54.5853 23.0002 54.7993 22.7976C55.0134 22.595 55.18 22.3477 55.2873 22.0732C55.3946 21.7988 55.4399 21.504 55.42 21.21V20.3C55.0709 20.7233 54.6279 21.0593 54.1263 21.2815C53.6246 21.5037 53.0781 21.6059 52.53 21.58C51.2039 21.58 49.9322 21.0532 48.9945 20.1155C48.0568 19.1779 47.53 17.9061 47.53 16.58C47.53 15.2539 48.0568 13.9822 48.9945 13.0445C49.9322 12.1068 51.2039 11.58 52.53 11.58C53.0781 11.5541 53.6246 11.6563 54.1263 11.8785C54.6279 12.1007 55.0709 12.4367 55.42 12.86V11.86L58.31 11.8ZM55.42 16.55C55.4399 16.0716 55.3163 15.5981 55.065 15.1905C54.8137 14.7829 54.4463 14.4598 54.0098 14.2627C53.5734 14.0656 53.0881 14.0036 52.6161 14.0846C52.1442 14.1656 51.7072 14.3859 51.3615 14.7172C51.0158 15.0485 50.7771 15.4757 50.6761 15.9438C50.5751 16.4119 50.6164 16.8994 50.7947 17.3438C50.9731 17.7882 51.2803 18.1691 51.6768 18.4375C52.0734 18.7059 52.5412 18.8496 53.02 18.85C53.3325 18.8725 53.6462 18.8292 53.9408 18.723C54.2355 18.6167 54.5047 18.4498 54.7308 18.233C54.957 18.0163 55.1352 17.7545 55.2539 17.4646C55.3726 17.1747 55.4292 16.8631 55.42 16.55Z" fill="white"/>
<path d="M60 16.75C60 15.7112 60.3082 14.6958 60.8855 13.8322C61.4628 12.9686 62.2833 12.2957 63.2432 11.8987C64.2031 11.5016 65.2592 11.3982 66.2779 11.6016C67.2966 11.805 68.232 12.306 68.9659 13.0412C69.6997 13.7765 70.1989 14.7129 70.4003 15.7319C70.6018 16.751 70.4964 17.8069 70.0975 18.766C69.6986 19.7252 69.0241 20.5444 68.1595 21.1201C67.2948 21.6958 66.2788 22.002 65.24 22C64.5492 22.0067 63.8639 21.8754 63.2245 21.6138C62.5851 21.3522 62.0043 20.9656 61.5163 20.4766C61.0282 19.9876 60.6427 19.4061 60.3823 18.7662C60.122 18.1263 59.992 17.4408 60 16.75ZM67.52 16.75C67.5082 16.3014 67.3642 15.8662 67.1062 15.499C66.8482 15.1319 66.4875 14.849 66.0694 14.6859C65.6513 14.5228 65.1944 14.4867 64.7559 14.5822C64.3174 14.6776 63.9168 14.9004 63.6043 15.2225C63.2918 15.5446 63.0813 15.9518 62.9993 16.393C62.9172 16.8342 62.9671 17.2898 63.1428 17.7027C63.3185 18.1157 63.6122 18.4676 63.9871 18.7144C64.3619 18.9611 64.8012 19.0918 65.25 19.09C65.5553 19.096 65.8585 19.0389 66.1407 18.9223C66.4229 18.8058 66.678 18.6323 66.8901 18.4127C67.1022 18.1931 67.2667 17.932 67.3734 17.646C67.4801 17.3599 67.5266 17.0549 67.51 16.75H67.52Z" fill="white"/>
<path d="M71.87 9.15C71.87 8.798 71.9744 8.4538 72.17 8.1611C72.3656 7.86836 72.6436 7.64022 72.9688 7.50549C73.2941 7.37077 73.652 7.33552 73.9973 7.4042C74.3425 7.47288 74.6597 7.64241 74.9087 7.89135C75.1576 8.1403 75.3271 8.4575 75.3958 8.8027C75.4645 9.148 75.4292 9.5059 75.2945 9.8312C75.1598 10.1564 74.9316 10.4344 74.6389 10.63C74.3462 10.8256 74.0021 10.93 73.65 10.93C73.1795 10.9248 72.7298 10.7356 72.3971 10.4029C72.0644 10.0702 71.8752 9.6205 71.87 9.15ZM72.16 11.8H75.16V21.7H72.16V11.8Z" fill="white"/>
<path d="M88 16.75C88.0336 17.4084 87.9367 18.067 87.7148 18.6878C87.493 19.3086 87.1505 19.8794 86.7072 20.3673C86.2638 20.8553 85.7284 21.2507 85.1316 21.5309C84.5349 21.8111 83.8886 21.9705 83.23 22C82.6711 22.0372 82.111 21.9477 81.5916 21.7382C81.0721 21.5286 80.6067 21.2045 80.23 20.79V25.68H77.23V11.8H80.23V12.73C80.6072 12.3167 81.073 11.9941 81.5925 11.7863C82.112 11.5784 82.6718 11.4908 83.23 11.53C83.886 11.5595 84.5297 11.718 85.1244 11.9963C85.7191 12.2746 86.2532 12.6674 86.6961 13.1521C87.1391 13.6368 87.4822 14.204 87.7059 14.8214C87.9296 15.4387 88.0296 16.094 88 16.75ZM85 16.75C84.9882 16.2855 84.8395 15.8349 84.5727 15.4546C84.3059 15.0743 83.9327 14.7811 83.5 14.612C83.0673 14.4428 82.5943 14.4052 82.1402 14.5037C81.6862 14.6022 81.2714 14.8326 80.9477 15.1659C80.624 15.4992 80.4059 15.9206 80.3208 16.3774C80.2356 16.8341 80.2871 17.3058 80.4689 17.7334C80.6507 18.1609 80.9546 18.5253 81.3426 18.7809C81.7306 19.0365 82.1854 19.1718 82.65 19.17C82.9682 19.1835 83.2857 19.1296 83.5816 19.0118C83.8776 18.894 84.1453 18.715 84.3672 18.4865C84.5891 18.258 84.7601 17.9851 84.8692 17.6859C84.9783 17.3866 85.0228 17.0677 85 16.75Z" fill="white"/>
<path d="M97.13 18.73C97.13 21.01 95.13 21.98 93.01 21.98C92.1453 22.0578 91.2772 21.8745 90.5178 21.4538C89.7584 21.0331 89.1426 20.3943 88.75 19.62L91.33 18.16C91.4322 18.5168 91.6538 18.8277 91.9578 19.0407C92.2618 19.2537 92.6297 19.3558 93 19.33C93.71 19.33 94.07 19.11 94.07 18.71C94.07 17.62 89.2 18.2 89.2 14.77C89.2 12.61 91.02 11.53 93.08 11.53C93.863 11.4949 94.641 11.6726 95.3311 12.0441C96.0213 12.4156 96.598 12.9671 97 13.64L94.42 15C94.306 14.742 94.1198 14.5226 93.8838 14.3682C93.6477 14.2138 93.372 14.1311 93.09 14.13C92.57 14.13 92.26 14.33 92.26 14.68C92.26 15.82 97.13 15.07 97.13 18.73Z" fill="white"/>
<path d="M108 11.8V21.7H105V20.77C104.659 21.1817 104.226 21.5074 103.737 21.7211C103.247 21.9348 102.714 22.0303 102.18 22C100.18 22 98.47 20.57 98.47 17.9V11.8H101.47V17.45C101.446 17.6862 101.474 17.9247 101.552 18.1491C101.63 18.3734 101.755 18.5782 101.919 18.7494C102.084 18.9205 102.284 19.0539 102.505 19.1404C102.726 19.2268 102.963 19.2642 103.2 19.25C104.28 19.25 105.04 18.61 105.04 17.25V11.8H108Z" fill="white"/>
<path d="M125 15.62V21.7H122V15.88C122 14.88 121.53 14.26 120.58 14.26C119.63 14.26 119.03 14.95 119.03 16.12V21.7H116.03V15.88C116.03 14.88 115.56 14.26 114.61 14.26C113.66 14.26 113.06 14.95 113.06 16.12V21.7H110.06V11.8H113.06V12.71C113.371 12.308 113.776 11.9896 114.241 11.7836C114.705 11.5776 115.214 11.4904 115.72 11.53C116.227 11.5035 116.733 11.6095 117.187 11.8374C117.641 12.0653 118.028 12.4074 118.31 12.83C118.64 12.3884 119.076 12.0376 119.578 11.8103C120.079 11.5829 120.631 11.4865 121.18 11.53C123.52 11.53 125 13.15 125 15.62Z" fill="white"/>
<path d="M127.52 11.74C128.735 11.74 129.72 10.755 129.72 9.54C129.72 8.325 128.735 7.34 127.52 7.34C126.305 7.34 125.32 8.325 125.32 9.54C125.32 10.755 126.305 11.74 127.52 11.74Z" fill="white"/>
</svg>
